<!-- Uploaded to: SVG Repo, www.svgrepo.com, Transformed by: SVG Repo Mixer Tools -->
<svg fill="#ffffff" width="100px" height="100px" viewBox="-4.32 -4.32 24.64 24.64" xmlns="http://www.w3.org/2000/svg" xmlns:xlink="http://www.w3.org/1999/xlink" stroke="#ffffff" transform="rotate(0)" stroke-width="0.16">

<g id="SVGRepo_bgCarrier" stroke-width="0" transform="translate(0,0), scale(1)">

<rect x="-4.32" y="-4.32" width="24.64" height="24.64" rx="12.32" fill="#000000" strokewidth="0"/>

</g>

<g id="SVGRepo_tracerCarrier" stroke-linecap="round" stroke-linejoin="round" stroke="#CCCCCC" stroke-width="0.096"/>

<g id="SVGRepo_iconCarrier">

<title>icn/menu</title>

<path d="M2 3h12a1 1 0 0 1 0 2H2a1 1 0 1 1 0-2zm0 4h12a1 1 0 0 1 0 2H2a1 1 0 1 1 0-2zm0 4h12a1 1 0 0 1 0 2H2a1 1 0 0 1 0-2z" id="a"/>

</g>

</svg>